<svg width="10rem" viewBox="0 0 230 200" fill="none" xmlns="http://www.w3.org/2000/svg" style="color: currentcolor;"><g clip-path="url(#clip0_1466_846)"><mask maskUnits="userSpaceOnUse" x="0" y="0" width="230" height="200" style="mask-type: luminance;"><path d="M229.224 0H0V200H229.224V0Z" fill="white"/></mask><g mask="url(#mask0_1466_846)"><path d="M197.68 87.4482C197.633 87.7146 197.571 87.9829 197.508 88.2341C197.272 89.207 197.021 90.1668 196.769 91.0944C196.755 91.1718 196.723 91.2512 196.707 91.3306C196.675 91.425 196.66 91.5194 196.628 91.614C196.344 92.6662 196.047 93.6713 195.748 94.6613C195.34 95.997 194.915 97.2704 194.491 98.5097C194.364 98.8705 194.24 99.2333 194.113 99.579C193.924 100.099 193.736 100.616 193.564 101.119V101.134C193.389 101.542 193.251 101.92 193.093 102.313C192.857 102.942 192.605 103.539 192.369 104.136C192.009 105.016 191.648 105.865 191.303 106.65C191.223 106.839 191.145 107.011 191.067 107.185C190.909 107.546 190.752 107.892 190.611 108.222H168.301V87.452H197.68V87.4482Z" fill="#9D9D9D"/><path d="M93.6045 87.4453H52.2417V108.21H93.6045V87.4453Z" fill="#9D9D9D"/><path d="M80.4544 112.704C85.2412 107.917 85.2412 100.156 80.4544 95.3694C75.6676 90.5826 67.9067 90.5826 63.1199 95.3694C58.3331 100.156 58.3331 107.917 63.1199 112.704C67.9067 117.491 75.6676 117.491 80.4544 112.704Z" fill="#2C2C2C"/><path d="M78.2184 104.036C78.2184 105.468 77.7499 106.791 76.9583 107.858C75.7888 109.442 73.9071 110.466 71.7893 110.466C68.2375 110.466 65.3584 107.586 65.3584 104.034C65.3584 101.278 67.0927 98.926 69.5297 98.0116C70.2325 97.7471 70.9939 97.6035 71.7912 97.6035C75.3429 97.6035 78.2221 100.483 78.2221 104.034L78.2184 104.036Z" fill="#9D9D9D"/><path d="M199.44 56.7658C199.283 55.634 199.109 54.5043 198.905 53.3556C198.889 53.246 198.857 53.1195 198.843 53.0099C198.621 51.8159 198.372 50.639 198.088 49.443L28.3335 17.959C28.0823 17.959 27.8159 17.959 27.5646 17.9759C27.5174 17.9759 27.455 17.9911 27.4078 17.9911C27.2982 17.9911 27.2038 18.0081 27.1092 18.0081H27.0942C27.047 18.0233 26.9998 18.0233 26.9524 18.0233C26.8902 18.0402 26.8259 18.0402 26.7806 18.0553C26.3083 18.1026 25.8379 18.197 25.3674 18.3066C25.3051 18.3217 25.2408 18.3387 25.1784 18.3538C25.1634 18.3709 25.1464 18.3709 25.1312 18.3709C25.0368 18.403 24.9423 18.4181 24.8648 18.4483C24.8026 18.4634 24.7383 18.4805 24.6759 18.4955C24.5815 18.5277 24.487 18.5578 24.3926 18.5899C24.2982 18.6221 24.2036 18.6523 24.1092 18.6845C24.0619 18.6995 24.0147 18.7317 23.9524 18.7467C23.8579 18.7789 23.7483 18.8262 23.6387 18.8734C23.5594 18.9055 23.4668 18.9357 23.3875 18.983C23.2458 19.0302 23.1211 19.0925 22.9794 19.1567C22.9 19.2039 22.8226 19.2342 22.7282 19.2814C22.681 19.3135 22.6186 19.3287 22.5714 19.3607C22.4618 19.4231 22.3674 19.4703 22.2728 19.5175C22.1784 19.5799 22.0839 19.6271 21.9895 19.6895C21.895 19.7367 21.8175 19.7839 21.7231 19.8463C21.708 19.8614 21.691 19.8614 21.6759 19.8785C21.5814 19.9257 21.502 19.9881 21.4246 20.0353C21.3452 20.0975 21.2678 20.1449 21.1884 20.209C21.1091 20.2563 21.0316 20.3035 20.9523 20.3658C20.9051 20.3979 20.8578 20.4433 20.7955 20.4754C20.5914 20.6322 20.3874 20.8061 20.1984 20.9779C20.1512 21.0101 20.104 21.0403 20.0719 21.0725C20.0095 21.1347 19.9454 21.1821 19.9 21.2293C19.8376 21.2915 19.7734 21.3389 19.7111 21.403L19.3654 21.7487C19.303 21.8111 19.2387 21.8754 19.1934 21.9377C19.114 22.0001 19.0518 22.0794 18.9894 22.1418C18.9572 22.189 18.91 22.2362 18.8628 22.2834C18.7835 22.393 18.706 22.4875 18.6266 22.5819C18.5794 22.6291 18.5472 22.6763 18.5 22.7237C18.4679 22.7859 18.4207 22.8333 18.3904 22.8805C18.313 22.9901 18.2336 23.0845 18.1543 23.1941C18.1222 23.2413 18.092 23.2885 18.0599 23.3509C18.0126 23.3981 17.9806 23.4453 17.9503 23.5077C17.8879 23.5851 17.8238 23.6795 17.7614 23.7741C17.7614 23.7841 17.7563 23.7891 17.7463 23.7891C17.7311 23.8363 17.699 23.8685 17.6839 23.9138C17.6367 23.9762 17.6046 24.0405 17.5574 24.1027C17.5252 24.1651 17.495 24.1973 17.478 24.2595C17.4628 24.2595 17.4628 24.2747 17.4628 24.2747C17.4478 24.3219 17.4156 24.3691 17.3835 24.4163C17.3363 24.4957 17.2891 24.5902 17.2418 24.6677C17.1946 24.7773 17.1323 24.8887 17.085 24.9982C17.0378 25.0927 16.9906 25.1871 16.9603 25.2817C16.9282 25.3289 16.9131 25.3761 16.881 25.4234C16.8659 25.4857 16.8488 25.5329 16.8186 25.5802C16.7714 25.6897 16.7392 25.7842 16.692 25.8938C16.6599 25.9882 16.6127 26.0827 16.5824 26.1922C16.5674 26.2395 16.5352 26.3018 16.5202 26.3642C16.505 26.4114 16.488 26.4586 16.473 26.5059C16.4578 26.5379 16.4578 26.5682 16.4408 26.6003C16.4256 26.6475 16.4087 26.7099 16.3935 26.7571C16.3615 26.8365 16.3463 26.9139 16.3142 26.9932C16.2991 27.0556 16.282 27.1199 16.267 27.1822C16.2519 27.2446 16.2348 27.2918 16.2198 27.3561C16.0478 27.9682 15.8891 28.5973 15.7172 29.2566C15.6851 29.3662 15.6548 29.4758 15.6227 29.5873C15.4338 30.2787 15.2448 30.9853 15.0579 31.7089C15.0106 31.8505 14.9786 32.0073 14.9312 32.1641C14.9162 32.2435 14.8992 32.3058 14.884 32.3682C14.8218 32.5873 14.7575 32.8083 14.7103 33.0275C14.6479 33.2486 14.5855 33.4828 14.5214 33.7038C14.5214 33.7359 14.5062 33.7662 14.4892 33.8134C14.474 33.923 14.442 34.0344 14.4099 34.144C14.3778 34.2384 14.3626 34.3159 14.3475 34.3952C14.2852 34.5994 14.2379 34.7883 14.1907 34.9923C14.1114 35.2606 14.049 35.527 13.9715 35.7934C13.9243 35.9974 13.862 36.2185 13.8147 36.4375C13.641 37.0818 13.469 37.7411 13.2971 38.4023C13.2196 38.733 13.1403 39.0466 13.0458 39.3754C12.9665 39.7059 12.8739 40.0347 12.7946 40.3653C12.7152 40.6959 12.6226 41.0246 12.5433 41.3553C12.4639 41.6538 12.4016 41.9522 12.3241 42.2507C12.105 43.114 11.884 43.9794 11.6799 44.8276C11.6006 45.1583 11.5231 45.4719 11.4438 45.7855C11.4116 45.8951 11.3965 46.0046 11.3644 46.0991C11.2851 46.4298 11.2076 46.7434 11.1283 47.057C11.1131 47.1192 11.1131 47.1666 11.0961 47.2307C11.0338 47.4821 10.9696 47.7333 10.9072 47.9846C10.8751 48.0942 10.86 48.2036 10.8279 48.2982C10.7655 48.5815 10.7013 48.8479 10.6389 49.1143C10.6068 49.2882 10.5596 49.445 10.5294 49.6018C10.45 49.8851 10.3877 50.1515 10.3253 50.4349C10.3253 50.4501 10.3253 50.4822 10.3102 50.4972C10.2781 50.654 10.2479 50.8108 10.2158 50.9526C10.2006 50.9847 10.2006 50.9998 10.2006 51.0319C10.1685 51.1566 10.1383 51.2831 10.1062 51.4078C10.0741 51.5495 10.0438 51.7063 10.0117 51.848C9.93236 52.1466 9.87003 52.4299 9.80768 52.7284C9.79256 52.7907 9.77556 52.8702 9.76044 52.9475C9.6811 53.2932 9.60364 53.6542 9.5243 53.9999C9.50918 54.1246 9.47707 54.2511 9.44495 54.3778C9.44495 54.4098 9.42983 54.4401 9.42983 54.4722C9.39771 54.5818 9.38261 54.7083 9.35049 54.8179C9.33538 54.8651 9.33538 54.9123 9.31836 54.9597C9.28626 55.1315 9.25602 55.3054 9.20879 55.4772V55.4923C9.19368 55.6019 9.16157 55.6965 9.14645 55.8061C9.0841 56.1366 9.02176 56.4502 8.95752 56.7638C8.62691 58.3981 8.37565 59.8282 8.23395 60.975C7.46503 66.756 7.16652 73.1831 7.08718 79.4044C7.07207 82.0758 7.08718 84.6999 7.13442 87.1975C7.14952 88.3291 7.18165 89.4287 7.21377 90.496C7.30822 93.5434 7.43291 96.3564 7.5595 98.8068C7.63884 100.237 7.73142 101.526 7.79565 102.672C8.01479 105.799 10.5917 108.219 13.7184 108.219H57.08C57.065 108.172 57.065 108.125 57.048 108.077C56.6871 106.789 56.5134 105.438 56.5134 104.04C56.5134 98.1644 59.829 93.0579 64.6994 90.4981C66.7567 89.4135 69.0824 88.8015 71.5498 88.7542C74.1739 88.7222 76.6563 89.3513 78.8232 90.4981C83.6466 93.0277 86.9772 98.0398 87.0566 103.821C87.0716 105.298 86.8847 106.727 86.5219 108.079C86.5068 108.126 86.4898 108.174 86.4898 108.221H172.947C172.569 106.885 172.349 105.487 172.349 104.042C172.349 95.4799 179.295 88.552 187.84 88.552C191.139 88.552 194.203 89.5723 196.7 91.333C196.715 91.2536 196.747 91.1762 196.763 91.0968C197.013 90.1692 197.265 89.2114 197.501 88.2366C197.564 87.9852 197.628 87.719 197.673 87.4507C197.735 87.1673 197.8 86.8858 197.861 86.6025L197.893 86.4929C197.941 86.2889 197.988 86.0847 198.036 85.8637C198.145 85.3291 198.255 84.7945 198.367 84.2446C198.744 82.3119 199.073 80.3018 199.341 78.2595C199.56 76.6726 199.735 75.0384 199.859 73.3891C199.907 72.6183 199.953 71.8494 200 71.0634C200.032 70.2775 200.063 69.4935 200.08 68.6906C200.159 64.81 199.971 60.82 199.436 56.7658H199.44Z" fill="#E0E0E0"/><path d="M35.0058 93.262H27.4299C26.6704 93.262 26.0488 92.6405 26.0488 91.8811C26.0488 91.1216 26.6704 90.5 27.4299 90.5H35.0058C35.7652 90.5 36.3867 91.1216 36.3867 91.8811C36.3867 92.6405 35.7652 93.262 35.0058 93.262Z" fill="#2C2C2C"/><path d="M199.439 56.766C199.439 56.766 9.03871 56.1955 8.95747 56.5299C8.63253 57.877 8.38314 59.0539 8.23201 59.9967C7.26471 66.0782 7.0229 73.0607 7.10035 79.4104C7.12114 81.073 7.1627 82.6902 7.21938 84.2355H131.491V84.2431H198.372C198.75 82.3104 199.079 80.3003 199.347 78.258C199.566 76.6711 199.74 75.0368 199.864 73.3875C199.912 72.6167 199.959 71.8479 200.006 71.0619C200.039 70.276 200.068 69.4919 200.086 68.6891C200.164 64.8086 199.976 60.8184 199.442 56.7642L199.439 56.766Z" fill="#CBCACA"/><path d="M9.95128 87.2031H7.27047C6.40861 87.2031 5.70996 87.9018 5.70996 88.7637V97.2519C5.70996 98.1138 6.40861 98.8124 7.27047 98.8124H9.95128C10.8131 98.8124 11.5118 98.1138 11.5118 97.2519V88.7637C11.5118 87.9018 10.8131 87.2031 9.95128 87.2031Z" fill="#868686"/><path d="M199.439 56.7656C199.283 55.6339 199.108 54.5041 198.904 53.3555C198.889 53.2459 198.857 53.1193 198.843 53.0097C198.621 51.8157 198.372 50.6388 198.088 49.4429C197.916 48.6891 197.711 47.9352 197.507 47.1815C197.38 46.7564 197.271 46.3483 197.145 45.9251C197.131 45.8628 197.099 45.7835 197.083 45.7211C196.927 45.2185 196.769 44.6991 196.613 44.1964C196.441 43.6788 196.267 43.1593 196.079 42.6416C195.984 42.3583 195.889 42.0768 195.78 41.7933C195.717 41.6196 195.653 41.4476 195.591 41.2757C194.539 38.4796 193.283 35.6836 191.805 32.9027C191.585 32.5096 191.364 32.1016 191.145 31.7087C191.067 31.5669 190.989 31.4252 190.909 31.2855C190.815 31.1116 190.72 30.9548 190.625 30.798C189.967 29.6512 189.26 28.5045 188.504 27.3577C187.955 26.4944 187.357 25.6461 186.745 24.7808C186.463 24.3727 186.164 23.9797 185.865 23.5717C185.676 23.3356 185.487 23.0843 185.3 22.8331C184.797 22.1888 184.295 21.5295 183.76 20.8852C183.179 20.1937 182.599 19.4872 181.984 18.7957C181.733 18.5123 181.483 18.2308 181.231 17.9625H78.7967C78.7967 17.9625 78.791 17.9588 78.7872 17.9551H28.3295C28.0744 17.9551 27.8195 17.9625 27.5663 17.9777C27.5096 17.9815 27.4548 17.9871 27.3982 17.9891C27.3018 17.9965 27.2055 18.0041 27.111 18.0136C27.1015 18.0136 27.094 18.0136 27.0864 18.0155C27.0411 18.0211 26.9958 18.0249 26.9486 18.0305H26.9428C26.8862 18.0363 26.8295 18.0437 26.7747 18.0513C26.2986 18.1099 25.83 18.1968 25.3691 18.3083C25.303 18.3235 25.2387 18.3404 25.1727 18.3575C25.1556 18.3612 25.1406 18.3668 25.1235 18.3707C25.0347 18.3933 24.9459 18.4197 24.8571 18.4443C24.7967 18.4613 24.7362 18.4803 24.6758 18.4972C24.5814 18.5256 24.485 18.5577 24.3904 18.5879C24.296 18.62 24.2016 18.6521 24.1071 18.6861C24.056 18.7032 24.0051 18.722 23.956 18.7428C23.852 18.7825 23.7463 18.8221 23.6443 18.8637C23.5555 18.8996 23.4686 18.9355 23.3798 18.9733C23.2456 19.0319 23.1115 19.0923 22.9792 19.1547C22.8962 19.1944 22.8111 19.234 22.7299 19.2756C22.6732 19.3039 22.6184 19.3323 22.5636 19.3605C22.4654 19.4116 22.369 19.4645 22.2708 19.5193C22.1744 19.5721 22.078 19.6269 21.9836 19.6836C21.8967 19.7365 21.8116 19.7876 21.7248 19.8424C21.7059 19.8537 21.6851 19.8669 21.6682 19.8783C21.585 19.9292 21.5038 19.9821 21.4206 20.0369C21.3412 20.0899 21.2619 20.1428 21.1844 20.1975C21.107 20.2523 21.0295 20.3071 20.954 20.3619C20.903 20.3997 20.8539 20.4375 20.8028 20.4752C20.5931 20.634 20.3891 20.7964 20.1907 20.9683C20.1511 21.0024 20.1114 21.0383 20.0698 21.0741C20.0112 21.1271 19.9508 21.1799 19.8922 21.2328C19.8318 21.2857 19.7751 21.3405 19.7166 21.3953C19.5956 21.5087 19.4766 21.6257 19.3614 21.7448C19.3008 21.8072 19.2423 21.8695 19.1819 21.9337C19.1176 22.0036 19.0534 22.0716 18.993 22.1435C18.9495 22.1907 18.9098 22.2379 18.8683 22.2871C18.7832 22.3833 18.702 22.4797 18.6246 22.578C18.5848 22.6271 18.5452 22.6761 18.5055 22.7253C18.4659 22.7744 18.4262 22.8255 18.3884 22.8764C18.311 22.9785 18.2335 23.0824 18.1598 23.1863C18.1239 23.2373 18.0862 23.2883 18.0522 23.3412C18.0162 23.3923 17.9803 23.4451 17.9444 23.498C16.8108 23.5377 15.5092 23.6605 14.1698 23.9383C9.17648 24.9792 6.02146 27.7337 5.01262 31.9203L4.40428 31.8616C3.5938 31.7841 2.85699 32.3359 2.70208 33.1351L0.0288119 46.934C-0.148776 47.8503 0.50112 48.7193 1.43063 48.8081L5.28088 49.1765C6.14994 49.2596 6.92074 48.6229 7.00387 47.7539L8.33388 33.8284C8.41323 32.9933 7.82757 32.2489 7.00954 32.1185C7.88047 28.3457 10.0606 25.5139 14.6099 24.5579C15.615 24.3463 16.586 24.2688 17.4702 24.2651L17.4683 24.2688C17.44 24.316 17.4135 24.3652 17.389 24.4143C17.3418 24.4993 17.2946 24.5863 17.2511 24.6712C17.1944 24.7789 17.1396 24.8847 17.0886 24.9924C17.0432 25.0849 16.9998 25.1776 16.9583 25.272C16.9356 25.3231 16.913 25.374 16.8902 25.4251C16.8675 25.478 16.8448 25.5289 16.8242 25.58C16.7807 25.6839 16.7372 25.7877 16.6975 25.8917C16.6598 25.988 16.6239 26.0863 16.586 26.1845C16.5652 26.2449 16.5446 26.3035 16.5238 26.364C16.5067 26.4112 16.4916 26.4584 16.4746 26.5076C16.4651 26.5359 16.4558 26.5643 16.4444 26.5945C16.4274 26.6473 16.4103 26.7021 16.3934 26.7569C16.3688 26.8344 16.3462 26.9119 16.3235 26.9893C16.3046 27.0555 16.2856 27.1216 16.2668 27.1877C16.2535 27.2425 16.2384 27.2972 16.2234 27.352C16.0571 27.966 15.8871 28.6008 15.7114 29.2527C15.683 29.3603 15.6528 29.4699 15.6244 29.5795C15.4392 30.2691 15.2504 30.9756 15.0576 31.6973C15.0162 31.8523 14.9746 32.0091 14.933 32.1677C14.9216 32.2093 14.9103 32.2508 14.899 32.2924C14.8687 32.4076 14.8386 32.5248 14.8064 32.6419C14.7724 32.7704 14.7384 32.8988 14.7063 33.0273C14.6478 33.2503 14.5891 33.4732 14.5287 33.698C14.5192 33.732 14.5098 33.7679 14.5003 33.8019C14.4644 33.9341 14.4304 34.0664 14.3964 34.1987C14.3795 34.2629 14.3624 34.3271 14.3474 34.3913C14.2944 34.5879 14.2434 34.7843 14.1924 34.9827C14.1924 34.9864 14.1906 34.9903 14.1906 34.9903C14.1206 35.2547 14.0507 35.5211 13.9808 35.7875H69.4979V56.7617H199.441L199.439 56.7656Z" fill="#E0E0E0"/><path d="M199.439 56.7661C199.283 55.6345 199.108 54.5048 198.904 53.3561C198.889 53.2465 198.857 53.12 198.843 53.0104C198.621 51.8164 198.372 50.6393 198.088 49.4435C197.916 48.6897 197.711 47.9359 197.507 47.1821C197.38 46.7569 197.271 46.3489 197.145 45.9257C197.131 45.8633 197.099 45.784 197.083 45.7217C196.927 45.2192 196.769 44.6996 196.613 44.1971C196.441 43.6795 196.267 43.1599 196.079 42.6423C195.984 42.3588 195.889 42.0773 195.78 41.794C195.717 41.6201 195.653 41.4483 195.591 41.2763C194.539 38.4803 193.283 35.6841 191.805 32.9032C191.585 32.5103 191.364 32.1023 191.145 31.7092C191.065 31.5676 190.988 31.4259 190.909 31.286C190.815 31.1123 190.72 30.9555 190.625 30.7987C189.967 29.6519 189.26 28.5051 188.504 27.3584H16.2192C16.0473 27.9704 15.8887 28.5996 15.7167 29.2589C15.6845 29.3685 15.6544 29.478 15.6223 29.5895C15.4333 30.2809 15.2444 30.9876 15.0573 31.7112C15.0101 31.8528 14.978 32.0096 14.9308 32.1664C14.9157 32.2457 14.8987 32.3081 14.8836 32.3705C14.8212 32.5896 14.7569 32.8107 14.7097 33.0299C14.6475 33.2508 14.5851 33.4851 14.5208 33.7061C14.5208 33.7383 14.5057 33.7685 14.4887 33.8157C14.4736 33.9253 14.4415 34.0368 14.4093 34.1464C14.3772 34.2408 14.3621 34.3183 14.3471 34.3976C14.2847 34.6016 14.2375 34.7905 14.1903 34.9947C14.1108 35.2629 14.0485 35.5293 13.9711 35.7956C13.9239 35.9997 13.8615 36.2208 13.8143 36.4399C13.6404 37.0841 13.4685 37.7435 13.2966 38.4047C13.2192 38.7353 13.1398 39.0489 13.0453 39.3776C12.966 39.7083 12.8734 40.0369 12.7941 40.3676C12.7147 40.6983 12.6222 41.0269 12.5428 41.3576C12.4635 41.656 12.4011 41.9545 12.3237 42.2531C12.1045 43.1164 11.8835 43.9817 11.6794 44.83C11.6001 45.1605 11.5226 45.4743 11.4433 45.7879C11.4112 45.8973 11.396 46.0069 11.3639 46.1015C11.2846 46.432 11.2071 46.7456 11.1278 47.0593C11.1127 47.1216 11.1127 47.1688 11.0956 47.2331C11.0333 47.4844 10.9691 47.7356 10.9067 47.9869C10.8746 48.0964 10.8595 48.206 10.8274 48.3005C10.765 48.5839 10.7008 48.8503 10.6385 49.1167C10.6063 49.2904 10.5591 49.4472 10.5289 49.6041C10.4495 49.8875 10.3872 50.1539 10.3248 50.4372C10.3248 50.4524 10.3248 50.4844 10.3097 50.4996C10.2776 50.6564 10.2474 50.8132 10.2153 50.9549C10.2002 50.9869 10.2002 51.0021 10.2002 51.0343C10.168 51.1589 10.1378 51.2855 10.1057 51.4101C10.0736 51.5519 10.0434 51.7087 10.0112 51.8504C9.93188 52.1489 9.86954 52.4323 9.80719 52.7308C9.79207 52.7931 9.77507 52.8724 9.75996 52.9499C9.68062 53.2956 9.60315 53.6565 9.5238 54.0023C9.5087 54.1269 9.47658 54.2535 9.44446 54.38C9.44446 54.4121 9.42934 54.4424 9.42934 54.4745C9.39723 54.5841 9.38211 54.7107 9.34999 54.8203C9.33488 54.8675 9.33488 54.9147 9.31788 54.962C9.28576 55.1339 9.25554 55.3077 9.2083 55.4796V55.4947C9.19319 55.6043 9.16107 55.6988 9.14596 55.8083C9.08362 56.1389 9.02127 56.4525 8.95703 56.7661L13.5763 56.7813H15.32L24.8399 56.7964L36.6079 56.8115H38.7124L107.981 56.9361C107.966 56.8739 107.951 56.8115 107.919 56.7643H199.433L199.439 56.7661Z" fill="#9D9D9D"/><path d="M40.1161 34.3447C40.1992 32.9976 39.1299 31.8584 37.7791 31.8584H27.0804C20.1941 31.8584 15.4503 37.3145 14.6095 44.3292L12.1252 74.7969C12.0402 75.8397 12.8639 76.7333 13.9105 76.7333H35.8427C36.7664 76.7333 37.5316 76.0136 37.5901 75.0916L40.1161 34.3447Z" fill="#868686"/><path d="M38.0227 36.2802L36.1939 63.0809L35.5535 72.4591C35.5535 73.6663 34.5748 74.6449 33.3695 74.6449H16.2795C13.2775 74.6449 14.1711 70.1939 14.4129 67.3827L16.3021 45.3542C16.3021 44.9291 16.3248 44.5098 16.3683 44.0941C16.9501 38.4623 21.3975 34.083 26.7969 34.083H33.2032C34.5031 34.083 38.0245 34.083 38.0245 36.2783L38.0227 36.2802Z" fill="#E0E0E0"/><path d="M78.2189 104.036C78.2189 105.468 77.7503 106.791 76.9587 107.858C69.8194 105.89 69.347 100.483 69.5283 98.0116C70.2311 97.7471 70.9926 97.6035 71.7898 97.6035C75.3415 97.6035 78.2207 100.483 78.2207 104.034L78.2189 104.036Z" fill="#868686"/><path d="M195.748 94.6598C195.339 95.9955 194.915 97.2688 194.491 98.5082C194.364 98.869 194.24 99.2316 194.113 99.5774C193.924 100.097 193.736 100.615 193.564 101.117V101.132C193.389 101.54 193.249 101.918 193.093 102.311C192.857 102.94 192.605 103.537 192.369 104.134C192.008 105.015 191.648 105.863 191.303 106.649C191.223 106.838 191.145 107.01 191.065 107.184C190.909 107.544 190.752 107.89 190.611 108.221C190.297 108.912 189.981 109.572 189.683 110.186C189.384 110.798 189.101 111.38 188.835 111.914C187.83 113.894 186.981 115.526 186.604 116.235C181.843 115.762 177.9 112.558 176.313 108.223C175.84 106.919 175.591 105.504 175.591 104.044C175.591 97.2726 181.073 91.79 187.845 91.79C190.845 91.79 193.611 92.8744 195.748 94.6654V94.6598Z" fill="#2C2C2C"/><path d="M193.564 101.118V101.133C193.391 101.541 193.251 101.919 193.093 102.312C192.857 102.941 192.607 103.538 192.369 104.135C192.009 105.015 191.648 105.863 191.303 106.649C191.223 106.838 191.145 107.01 191.067 107.184C190.909 107.545 190.753 107.89 190.611 108.221C190.297 108.913 189.981 109.572 189.684 110.186C189.101 110.375 188.489 110.469 187.845 110.469C185.897 110.469 184.153 109.606 182.975 108.223C182 107.108 181.42 105.646 181.42 104.044C181.42 101.28 183.148 98.9374 185.584 98.0116C186.291 97.7603 187.044 97.6035 187.845 97.6035C190.343 97.6035 192.512 99.0338 193.564 101.123V101.118Z" fill="#9D9D9D"/><path d="M193.564 101.117V101.133C193.391 101.541 193.251 101.918 193.093 102.311C192.857 102.94 192.607 103.538 192.369 104.134C192.009 105.015 191.648 105.863 191.303 106.649C191.223 106.838 191.145 107.01 191.067 107.184C185.788 104.843 185.427 100.239 185.584 98.0097C186.291 97.7584 187.044 97.6016 187.845 97.6016C190.343 97.6016 192.512 99.0317 193.564 101.121V101.117Z" fill="#868686"/><path d="M36.1925 63.0815L35.5519 72.4598C35.5519 73.667 34.5734 74.6455 33.368 74.6455H16.278C13.276 74.6455 14.1697 70.1946 14.4114 67.3834L16.3007 45.3549C16.3007 44.9298 16.3234 44.5105 16.3669 44.0947C19.3442 51.0358 25.3105 60.5501 36.1925 63.0797V63.0815Z" fill="#CBCACA"/><path d="M65.863 31.2891H96.648C98.2955 31.2891 99.6311 32.6267 99.6311 34.2721V50.0208C99.6311 51.6683 98.2935 53.0039 96.648 53.0039H65.863C64.2175 53.0039 62.8799 51.6663 62.8799 50.0208V34.2721C62.8799 32.6248 64.2175 31.2891 65.863 31.2891Z" fill="#E0E0E0"/><path d="M56.7495 31.2891H43.2226C42.0801 31.2891 41.1538 32.2152 41.1538 33.3577V50.9352C41.1538 52.0777 42.0801 53.0039 43.2226 53.0039H56.7495C57.8919 53.0039 58.8182 52.0777 58.8182 50.9352V33.3577C58.8182 32.2152 57.8919 31.2891 56.7495 31.2891Z" fill="#E0E0E0"/><path d="M107.112 31.2891H137.897C139.543 31.2891 140.88 32.6267 140.88 34.2721V50.0208C140.88 51.6683 139.543 53.0039 137.897 53.0039H107.112C105.465 53.0039 104.129 51.6663 104.129 50.0208V34.2721C104.129 32.6248 105.467 31.2891 107.112 31.2891Z" fill="#E0E0E0"/><path d="M147.803 31.2891H178.588C180.234 31.2891 181.571 32.6248 181.571 34.2721V50.0208C181.571 51.6683 180.234 53.0039 178.588 53.0039H147.803C146.158 53.0039 144.82 51.6663 144.82 50.0208V34.2721C144.82 32.6248 146.158 31.2891 147.803 31.2891Z" fill="#E0E0E0"/><path d="M198.088 49.4425C198.372 50.6365 198.623 51.8153 198.843 53.0093H188.002C186.651 53.0093 185.552 51.9099 185.552 50.5591V33.7335C185.552 32.3827 186.651 31.2832 188.002 31.2832H190.91C190.987 31.4249 191.067 31.5665 191.146 31.7064C191.364 32.0993 191.586 32.5075 191.806 32.9004C193.283 35.6813 194.539 38.4773 195.591 41.2735C195.654 41.4473 195.718 41.6192 195.78 41.7911C195.89 42.0745 195.984 42.3579 196.079 42.6393C196.267 43.1571 196.439 43.6765 196.614 44.1943C196.77 44.6968 196.927 45.2144 197.083 45.7188C197.099 45.7812 197.131 45.8605 197.146 45.9228C197.272 46.346 197.382 46.756 197.507 47.1792C197.711 47.9331 197.915 48.6868 198.088 49.4407V49.4425Z" fill="#E0E0E0"/><path opacity="0.4" d="M122.103 115.986C149.385 130.03 182.893 119.301 196.941 92.013C210.989 64.7249 200.251 31.2193 172.969 17.1747C145.681 3.12641 112.171 13.8554 98.1249 41.1434C84.0765 68.4316 94.8149 101.937 122.103 115.986Z" fill="#FAFAFA"/><path opacity="0.4" d="M143.232 11.1745L176.225 114.172C176.949 113.737 177.661 113.282 178.365 112.817C182.859 109.834 186.939 106.173 190.455 101.878V101.873L161.961 12.9107C155.769 11.235 149.436 10.6852 143.232 11.1726V11.1745Z" fill="#FAFAFA"/><path opacity="0.4" d="M110.624 25.0167L141.646 121.848C150.18 122.758 158.74 121.657 166.655 118.751L132.783 13.0068C124.653 15.2399 117.045 19.3169 110.624 25.0149V25.0167Z" fill="#FAFAFA"/><path d="M92.096 98.733C108.604 127.192 143.653 138.188 173.102 125.328C175.252 130.351 177.529 135.3 179.86 140.218C183.234 147.308 186.748 154.314 190.368 161.261C194.016 168.19 197.717 175.088 201.564 181.905C203.453 185.332 205.437 188.704 207.369 192.106C208.293 193.832 209.438 195.429 211.04 196.761C211.832 197.432 212.742 198.034 213.774 198.568C214.821 199.092 215.96 199.561 217.437 199.836C222.266 200.733 226.922 197.925 228.489 193.425C228.984 192.008 229.142 190.786 229.206 189.617C229.258 188.457 229.186 187.366 228.997 186.346C228.637 184.294 227.818 182.508 226.78 180.849C224.786 177.482 222.844 174.085 220.808 170.745C216.801 164.024 212.652 157.384 208.446 150.777C204.214 144.186 199.877 137.657 195.4 131.209C192.288 126.745 189.121 122.311 185.83 117.95C211.614 98.7746 219.473 62.8905 202.965 34.4291C185.21 3.8103 145.996 -6.6126 115.381 11.1443C84.762 28.905 74.339 68.1198 92.096 98.733ZM122.163 22.8386C146.317 8.82812 177.258 17.0482 191.273 41.2077C205.285 65.3673 197.058 96.3071 172.904 110.318C148.745 124.33 117.803 116.112 103.789 91.9525C89.776 67.793 98.0036 36.853 122.163 22.8406V22.8386Z" fill="#FE5C48"/><path d="M213.34 71.9968L214.109 72.0609C213.779 75.9717 213.095 79.8995 212.076 83.7308L211.329 83.5324C212.337 79.7427 213.013 75.8621 213.34 71.9948V71.9968ZM204.636 33.4564L205.303 33.0691C210.665 42.3149 213.767 52.7719 214.269 63.31L213.499 63.346C213.001 52.9307 209.936 42.5947 204.636 33.4545V33.4564ZM153.62 -6.38961e-05C156.491 0.264429 159.373 0.723513 162.187 1.36019L162.017 2.11209C159.236 1.48109 156.389 1.02957 153.549 0.766965L153.621 -0.00195312L153.62 -6.38961e-05Z" fill="#FE5C48"/></g></g><defs><clipPath><rect width="229.333" height="200" fill="white"/></clipPath></defs></svg>